<svg width="139" height="102" viewBox="0 0 139 102" fill="none" xmlns="http://www.w3.org/2000/svg">
<path d="M49.148 22.7897L32.2825 70.3382H17.7876L0.922119 22.7897H13.2495L25.035 58.6881L36.8883 22.7897H49.148Z" fill="#fff"/>
<path d="M71.1929 70.8801C67.4902 70.8801 64.1487 70.0898 61.1685 68.5094C58.2334 66.929 55.9079 64.6712 54.192 61.7361C52.5212 58.801 51.6858 55.3692 51.6858 51.4407C51.6858 47.5574 52.5438 44.1481 54.2597 41.213C55.9756 38.2328 58.3237 35.9524 61.3039 34.372C64.2842 32.7916 67.6257 32.0014 71.3284 32.0014C75.0311 32.0014 78.3726 32.7916 81.3529 34.372C84.3331 35.9524 86.6812 38.2328 88.3971 41.213C90.113 44.1481 90.9709 47.5574 90.9709 51.4407C90.9709 55.3241 90.0904 58.7559 88.3294 61.7361C86.6135 64.6712 84.2428 66.929 81.2174 68.5094C78.2372 70.0898 74.8957 70.8801 71.1929 70.8801ZM71.1929 60.8556C73.4055 60.8556 75.2795 60.0428 76.8148 58.4172C78.3952 56.7916 79.1854 54.4661 79.1854 51.4407C79.1854 48.4153 78.4178 46.0898 76.8825 44.4642C75.3924 42.8386 73.541 42.0258 71.3284 42.0258C69.0706 42.0258 67.1967 42.8386 65.7066 44.4642C64.2164 46.0447 63.4714 48.3701 63.4714 51.4407C63.4714 54.4661 64.1939 56.7916 65.6388 58.4172C67.129 60.0428 68.9803 60.8556 71.1929 60.8556Z" fill="#8338EC"/>
<path d="M107.698 20.2158C108.25 20.2158 108.698 20.6635 108.698 21.2158V70.3382H97.1156V31.6172C97.1156 31.0649 97.5633 30.6172 98.1156 30.6172H101.907C102.459 30.6172 102.907 31.0649 102.907 31.6172V50.2158V29.5326V21.2158C102.907 20.6635 103.354 20.2158 103.907 20.2158H107.698Z" fill="#fff"/>
<path d="M138.156 60.5169V70.3382H132.264C128.064 70.3382 124.79 69.3222 122.442 67.2902C120.094 65.2131 118.92 61.849 118.92 57.198V42.1613H114.314V32.5432H118.92V23.3315H130.503V32.5432H138.089V42.1613H130.503V57.3335C130.503 58.4624 130.774 59.2752 131.315 59.7719C131.857 60.2686 132.76 60.5169 134.025 60.5169H138.156Z" fill="#fff"/>
<path d="M39.4462 89.3107L91.1938 53.9929L71.7599 47.5885L98.3115 12.1759L46.5549 47.4906L65.9888 53.8951L39.4462 89.3107Z" fill="#F7D928"/>
<path d="M71.7598 47.5892L68.7094 46.5839L90.5207 17.4864L98.3114 12.1765L71.7598 47.5892Z" fill="#E5C528"/>
<path d="M91.1935 53.9932L39.446 89.311L44.1802 82.9838L88.1431 52.9879L91.1935 53.9932Z" fill="#E5C528"/>
<mask id="mask0_56_366" style="mask-type:alpha" maskUnits="userSpaceOnUse" x="51" y="31" width="41" height="40">
<path d="M71.2905 70.7889C67.5878 70.7889 64.2463 69.9986 61.2661 68.4182C58.331 66.8378 56.0055 64.58 54.2896 61.6449C52.6188 58.7098 51.7834 55.278 51.7834 51.3495C51.7834 47.4662 52.6414 44.0569 54.3573 41.1218C56.0732 38.1416 58.4213 35.8612 61.4015 34.2808C64.3818 32.7004 67.7233 31.9102 71.426 31.9102C75.1287 31.9102 78.4702 32.7004 81.4505 34.2808C84.4307 35.8612 86.7788 38.1416 88.4947 41.1218C90.2106 44.0569 91.0686 47.4662 91.0686 51.3495C91.0686 55.2329 90.188 58.6647 88.427 61.6449C86.7111 64.58 84.3404 66.8378 81.315 68.4182C78.3348 69.9986 74.9933 70.7889 71.2905 70.7889ZM71.2905 60.7644C73.5031 60.7644 75.3771 59.9516 76.9124 58.326C78.4928 56.7004 79.283 54.3749 79.283 51.3495C79.283 48.3241 78.5154 45.9986 76.9801 44.373C75.49 42.7474 73.6386 41.9346 71.426 41.9346C69.1682 41.9346 67.2943 42.7474 65.8042 44.373C64.314 45.9535 63.569 48.279 63.569 51.3495C63.569 54.3749 64.2915 56.7004 65.7364 58.326C67.2266 59.9516 69.0779 60.7644 71.2905 60.7644Z" fill="#8338EC"/>
</mask>
<g mask="url(#mask0_56_366)">
<path d="M91.5443 38.0358L66.8619 26.5376L46.6254 29.7572L48.4651 64.5579L91.5443 38.0358Z" fill="#8338EC"/>
</g>
</svg>
